<svg width="129" height="45" viewBox="0 0 129 45" fill="none" xmlns="http://www.w3.org/2000/svg">
<path d="M116.15 18.0543C117.697 18.0543 118.952 16.7998 118.952 15.2522C118.952 13.7046 117.697 12.4501 116.15 12.4501C114.602 12.4501 113.348 13.7046 113.348 15.2522C113.348 16.7998 114.602 18.0543 116.15 18.0543Z" fill="#FF4500"/>
<path d="M76.1288 27.2004C77.5035 27.2004 78.2963 26.1696 78.2436 25.1649C78.2175 24.6362 78.1643 24.2923 78.1115 24.0282C77.2655 20.3806 74.3052 17.6839 70.7891 17.6839C66.6128 17.6839 63.2293 21.4641 63.2293 26.1164C63.2293 30.7687 66.6128 34.5489 70.7891 34.5489C73.4065 34.5489 75.2833 33.5974 76.6314 32.0907C77.2921 31.3506 77.1601 30.2139 76.3668 29.6586C75.706 29.2092 74.8867 29.3679 74.2786 29.87C73.6972 30.3725 72.5871 31.3767 70.7891 31.3767C68.6749 31.3767 66.8774 29.5526 66.4808 27.1472H76.1288V27.2004ZM70.763 20.8827C72.6659 20.8827 74.3052 22.3628 74.9133 24.3983H66.6128C67.2208 22.3367 68.8596 20.8827 70.763 20.8827ZM63.3879 19.3493C63.3879 18.5565 62.8065 17.9219 62.0664 17.7898C59.7664 17.4464 57.5989 18.2919 56.3567 19.8519V19.64C56.3567 18.662 55.5634 18.0544 54.7707 18.0544C53.898 18.0544 53.1846 18.7679 53.1846 19.64V32.5928C53.1846 33.4388 53.8187 34.1788 54.6647 34.2316C55.5901 34.2843 56.3567 33.5708 56.3567 32.6455V25.9577C56.3567 22.9974 58.577 20.5653 61.6432 20.9093H61.9605C62.7533 20.8561 63.3879 20.1687 63.3879 19.3493ZM117.736 21.0413C117.736 20.1687 117.022 19.4552 116.15 19.4552C115.277 19.4552 114.564 20.1687 114.564 21.0413V32.6455C114.564 33.5181 115.277 34.2316 116.15 34.2316C117.022 34.2316 117.736 33.5181 117.736 32.6455V21.0413ZM94.1566 12.2654C94.1566 11.3928 93.4432 10.6793 92.5706 10.6793C91.6984 10.6793 90.985 11.3928 90.985 12.2654V19.3232C89.901 18.2392 88.5529 17.7105 86.9402 17.7105C82.7638 17.7105 79.3803 21.4907 79.3803 26.143C79.3803 30.7953 82.7638 34.5755 86.9402 34.5755C88.5529 34.5755 89.9276 34.0202 91.0111 32.9362C91.1431 33.6768 91.8044 34.2316 92.5706 34.2316C93.4432 34.2316 94.1566 33.5181 94.1566 32.6455V12.2654ZM86.9668 31.4294C84.5347 31.4294 82.5786 29.0772 82.5786 26.143C82.5786 23.2354 84.5347 20.8561 86.9668 20.8561C89.3989 20.8561 91.355 23.2088 91.355 26.143C91.355 29.0772 89.3723 31.4294 86.9668 31.4294ZM110.704 12.2654C110.704 11.3928 109.991 10.6793 109.118 10.6793C108.246 10.6793 107.532 11.3928 107.532 12.2654V19.3232C106.449 18.2392 105.101 17.7105 103.488 17.7105C99.3115 17.7105 95.928 21.4907 95.928 26.143C95.928 30.7953 99.3115 34.5755 103.488 34.5755C105.101 34.5755 106.475 34.0202 107.559 32.9362C107.691 33.6768 108.352 34.2316 109.118 34.2316C109.991 34.2316 110.704 33.5181 110.704 32.6455V12.2654ZM103.488 31.4294C101.056 31.4294 99.1001 29.0772 99.1001 26.143C99.1001 23.2354 101.056 20.8561 103.488 20.8561C105.92 20.8561 107.876 23.2088 107.876 26.143C107.876 29.0772 105.92 31.4294 103.488 31.4294ZM125.771 32.6721V20.8827H127.173C127.913 20.8827 128.573 20.3274 128.626 19.5607C128.679 18.7413 128.019 18.0544 127.225 18.0544H125.771V15.8337C125.771 14.9877 125.137 14.2476 124.291 14.1949C123.366 14.1422 122.6 14.8557 122.6 15.781V18.0805H121.278C120.538 18.0805 119.877 18.6358 119.824 19.4025C119.771 20.2219 120.432 20.9093 121.225 20.9093H122.573V32.6987C122.573 33.5708 123.287 34.2843 124.159 34.2843C125.085 34.2316 125.771 33.5442 125.771 32.6721Z" fill="#222222"/>
<path d="M22.1514 44.3029C34.3853 44.3029 44.3029 34.3853 44.3029 22.1514C44.3029 9.91753 34.3853 0 22.1514 0C9.91753 0 0 9.91753 0 22.1514C0 34.3853 9.91753 44.3029 22.1514 44.3029Z" fill="#FF4500"/>
<path d="M36.9277 22.1514C36.9277 20.3539 35.4741 18.9265 33.7028 18.9265C32.8307 18.9265 32.0374 19.2699 31.456 19.8252C29.2357 18.2392 26.1956 17.2084 22.8121 17.0763L24.2922 10.1506L29.1032 11.1814C29.1564 12.3974 30.1606 13.3755 31.4032 13.3755C32.672 13.3755 33.7028 12.3447 33.7028 11.0754C33.7028 9.80666 32.672 8.77588 31.4032 8.77588C30.5045 8.77588 29.7112 9.30457 29.3412 10.0713L23.9754 8.93454C23.8168 8.90793 23.6581 8.93454 23.5522 9.01387C23.4201 9.09319 23.3408 9.22524 23.3147 9.3839L21.6754 17.1024C18.2391 17.2084 15.1463 18.2392 12.8994 19.8518C12.2943 19.2739 11.4894 18.9519 10.6526 18.9531C8.85516 18.9531 7.42773 20.4067 7.42773 22.178C7.42773 23.4995 8.22053 24.6096 9.33113 25.1122C9.27792 25.429 9.2518 25.7463 9.2518 26.0902C9.2518 31.0594 15.0408 35.1042 22.1779 35.1042C29.3151 35.1042 35.1041 31.086 35.1041 26.0902C35.1041 25.7729 35.0775 25.429 35.0248 25.1122C36.1349 24.6096 36.9277 23.4729 36.9277 22.1514ZM14.7762 24.4509C14.7762 23.1822 15.807 22.1514 17.0763 22.1514C18.345 22.1514 19.3758 23.1822 19.3758 24.4509C19.3758 25.7197 18.345 26.751 17.0763 26.751C15.807 26.7771 14.7762 25.7197 14.7762 24.4509ZM27.6497 30.5573C26.0636 32.1434 23.0501 32.2493 22.1779 32.2493C21.2792 32.2493 18.2657 32.1168 16.7057 30.5573C16.4683 30.3193 16.4683 29.9493 16.7057 29.7113C16.9437 29.4738 17.3138 29.4738 17.5518 29.7113C18.5564 30.7159 20.6712 31.0594 22.1779 31.0594C23.6847 31.0594 25.8256 30.7159 26.8037 29.7113C27.0416 29.4738 27.4117 29.4738 27.6497 29.7113C27.861 29.9493 27.861 30.3193 27.6497 30.5573ZM27.2264 26.7771C25.9576 26.7771 24.9269 25.7463 24.9269 24.4776C24.9269 23.2088 25.9576 22.178 27.2264 22.178C28.4957 22.178 29.5264 23.2088 29.5264 24.4776C29.5264 25.7197 28.4957 26.7771 27.2264 26.7771Z" fill="white"/>
</svg>
