<svg width="22" height="23" viewBox="0 0 22 23" fill="none" xmlns="http://www.w3.org/2000/svg">
<path d="M1 5.0741H3.22222H21" stroke="#757575" stroke-width="2" stroke-linecap="round" stroke-linejoin="round"/>
<path d="M6.5555 5.07407V3.03704C6.5555 2.49678 6.78963 1.97865 7.20638 1.59663C7.62312 1.21462 8.18835 1 8.77772 1H13.2222C13.8115 1 14.3768 1.21462 14.7935 1.59663C15.2103 1.97865 15.4444 2.49678 15.4444 3.03704V5.07407M18.7777 5.07407V19.3333C18.7777 19.8736 18.5436 20.3917 18.1268 20.7737C17.7101 21.1558 17.1449 21.3704 16.5555 21.3704H5.44439C4.85502 21.3704 4.28979 21.1558 3.87304 20.7737C3.45629 20.3917 3.22217 19.8736 3.22217 19.3333V5.07407H18.7777Z" stroke="#757575" stroke-width="2" stroke-linecap="round" stroke-linejoin="round"/>
<path d="M8.77783 10.1667V16.2778" stroke="#757575" stroke-width="2" stroke-linecap="round" stroke-linejoin="round"/>
<path d="M13.2222 10.1667V16.2778" stroke="#757575" stroke-width="2" stroke-linecap="round" stroke-linejoin="round"/>
</svg>
