<?xml version="1.0" standalone="no"?>
<!DOCTYPE svg PUBLIC "-//W3C//DTD SVG 20010904//EN"
 "http://www.w3.org/TR/2001/REC-SVG-20010904/DTD/svg10.dtd">
<svg version="1.0" xmlns="http://www.w3.org/2000/svg"
 width="225.000000pt" height="225.000000pt" viewBox="0 0 225.000000 225.000000"
 preserveAspectRatio="xMidYMid meet">

<g transform="translate(0.000000,225.000000) scale(0.100000,-0.100000)"
fill="#000000" stroke="none">
<path d="M989 2232 c-104 -42 -200 -125 -243 -209 -23 -46 -30 -135 -17 -227
10 -70 9 -81 -5 -97 -22 -24 -14 -112 15 -172 11 -23 29 -71 41 -107 44 -132
135 -250 231 -301 58 -31 167 -33 219 -5 97 52 182 159 225 284 15 42 36 97
48 122 27 59 35 154 14 178 -12 13 -13 28 -7 67 15 89 11 196 -9 240 -34 76
-160 163 -307 213 -92 32 -151 35 -205 14z"/>
<path d="M815 1093 c-54 -38 -204 -112 -270 -133 -159 -51 -258 -164 -301
-345 -31 -127 -17 -454 20 -484 17 -13 161 -57 249 -75 169 -35 338 -49 602
-50 347 0 603 31 800 97 83 28 86 35 105 192 27 225 -22 434 -129 548 -54 58
-101 87 -201 123 -95 34 -179 75 -252 125 -32 22 -61 39 -64 39 -4 0 -22 -14
-42 -31 -125 -110 -280 -110 -416 0 -21 17 -42 31 -45 30 -3 0 -28 -16 -56
-36z"/>
</g>
</svg>
